<?xml version="1.0" encoding="utf-8"?>
<!-- Generator: Adobe Illustrator 22.0.1, SVG Export Plug-In . SVG Version: 6.00 Build 0)  -->
<svg version="1.1" id="Camada_1" xmlns="http://www.w3.org/2000/svg" xmlns:xlink="http://www.w3.org/1999/xlink" x="0px" y="0px"
	 viewBox="0 0 512 512" style="enable-background:new 0 0 512 512;" xml:space="preserve">
<style type="text/css">
	.st0{opacity:0.75;}
	.st1{fill:#F7001E;}
</style>
<g class="st0">
	<g id="Guides">
	</g>
	<g id="Layer_2">
		<g>
			<path class="st1" d="M331.5,139.9h-149c-23.8,0-43.1,19.3-43.1,43.1v149c0,23.8,19.3,43.2,43.1,43.2h149
				c23.8,0,43.1-19.4,43.1-43.2v-149C374.7,159.3,355.3,139.9,331.5,139.9L331.5,139.9z M257,335c-42.7,0-77.5-34.8-77.5-77.5
				s34.8-77.5,77.5-77.5c42.7,0,77.5,34.8,77.5,77.5S299.7,335,257,335L257,335z M337,196.1c-10.1,0-18.3-8.2-18.3-18.3
				c0-10.1,8.2-18.3,18.3-18.3c10.1,0,18.3,8.2,18.3,18.3C355.3,187.9,347.1,196.1,337,196.1L337,196.1z"/>
			<path class="st1" d="M257,212.9c-24.6,0-44.7,20-44.7,44.7c0,24.7,20.1,44.7,44.7,44.7c24.7,0,44.7-20.1,44.7-44.7
				C301.7,232.9,281.7,212.9,257,212.9L257,212.9z"/>
			<path class="st1" d="M257,6.9C118.9,6.9,7,118.8,7,256.9s111.9,250,250,250s250-111.9,250-250C507,118.8,395.1,6.9,257,6.9
				L257,6.9z M407.4,332.1c0,41.9-34,75.9-75.9,75.9h-149c-41.8,0-75.9-34-75.9-75.9v-149c0-41.8,34.1-75.9,75.9-75.9h149
				c41.8,0,75.9,34.1,75.9,75.9V332.1z"/>
		</g>
	</g>
</g>
</svg>
