<?xml version="1.0" encoding="utf-8"?>
<!-- Generator: Adobe Illustrator 22.0.1, SVG Export Plug-In . SVG Version: 6.00 Build 0)  -->
<svg version="1.1" id="Layer_1" xmlns="http://www.w3.org/2000/svg" xmlns:xlink="http://www.w3.org/1999/xlink" x="0px" y="0px"
	 viewBox="0 0 550 550" style="enable-background:new 0 0 550 550;" xml:space="preserve">
<style type="text/css">
	.st0{opacity:0.75;fill:#F7001E;}
</style>
<path class="st0" d="M275,19C133.6,19,19,133.6,19,275s114.6,256,256,256s256-114.6,256-256S416.4,19,275,19z M343.5,185.3
	c-12.8,0-26.6,0-33.1,0c-6.6,0-13.2,6.8-13.2,11.8c0,5.1,0,33.8,0,33.8s40.9,0,46.2,0c-1.9,25.9-5.7,49.6-5.7,49.6h-40.8V416h-60.8
	V280.6h-29.6v-49.4h29.6c0,0,0-33,0-40.4s-1.5-56.8,62.4-56.9c8.5,0,27.9,0,45,0C343.5,155.3,343.5,178.6,343.5,185.3z"/>
</svg>
