<svg id="Layer_1" data-name="Layer 1" xmlns="http://www.w3.org/2000/svg" viewBox="0 0 451 458"><defs><style>.cls-1{fill:none;}.cls-1,.cls-2{stroke:#fff;stroke-miterlimit:10;}.cls-2{fill:#fff;}</style></defs><title>nav-close</title><path class="cls-1" d="M399,238.7a12,12,0,0,0,2.8-16.7l-20.9-29.3a12,12,0,0,0-16.7-2.8l-.8.6a180.64,180.64,0,0,1,32.2,50.7Z" transform="translate(-13.5 -82.5)"/><path class="cls-1" d="M393.8,388.9A184.09,184.09,0,0,0,410,313a186,186,0,0,0-14.4-71.9L292.8,314.4Z" transform="translate(-13.5 -82.5)"/><path class="cls-1" d="M115.5,183.6a12.08,12.08,0,0,0-16.8,2.5l-21.4,29a12.08,12.08,0,0,0,2.5,16.8l3.5,2.6a181.25,181.25,0,0,1,34.2-49.3Z" transform="translate(-13.5 -82.5)"/><path class="cls-1" d="M79.1,392.9a12,12,0,0,0-2.8,16.7L97.2,439a12,12,0,0,0,16.7,2.8l2.7-1.9a179.3,179.3,0,0,1-33.8-49.6Z" transform="translate(-13.5 -82.5)"/><path class="cls-1" d="M363.3,190.4C331.9,155.7,287.4,134,238,134c-46.9,0-89.4,19.5-120.4,51.2l124.3,91.7Z" transform="translate(-13.5 -82.5)"/><path class="cls-1" d="M116.7,439.8C147.8,472,190.7,492,238,492c47.9,0,91.2-20.4,122.3-53.2L241.3,351Z" transform="translate(-13.5 -82.5)"/><path class="cls-1" d="M397.1,391.4l-3.3-2.5a179.16,179.16,0,0,1-33.5,49.9l1.2.9a12.08,12.08,0,0,0,16.8-2.5l21.4-29A12.1,12.1,0,0,0,397.1,391.4Z" transform="translate(-13.5 -82.5)"/><path class="cls-1" d="M83.4,234.5a186,186,0,0,0-.6,155.8l107.7-76.7Z" transform="translate(-13.5 -82.5)"/><path class="cls-2" d="M239,83C114.7,83,14,185.3,14,311.5S114.7,540,239,540,464,437.7,464,311.5,363.3,83,239,83ZM399.7,408.2l-21.4,29a12,12,0,0,1-16.8,2.5l-1.2-.9C329.2,471.6,285.9,492,238,492c-47.4,0-90.2-19.9-121.3-52.2l-2.7,1.9a12,12,0,0,1-16.7-2.8L76.4,409.6a12,12,0,0,1,2.8-16.7l3.7-2.6A182.54,182.54,0,0,1,66,313a184.61,184.61,0,0,1,17.4-78.5l-3.5-2.6a12,12,0,0,1-2.5-16.8l21.4-29a12,12,0,0,1,16.8-2.5l2.1,1.6c31-31.7,73.5-51.2,120.4-51.2,49.4,0,93.9,21.7,125.3,56.4l.8-.6a12,12,0,0,1,16.7,2.8l20.9,29.3a12,12,0,0,1-2.8,16.7l-3.4,2.4a186.29,186.29,0,0,1-1.8,147.8l3.3,2.5A12.23,12.23,0,0,1,399.7,408.2Z" transform="translate(-13.5 -82.5)"/><path class="cls-2" d="M292.7,314.4l102.8-73.3a180.64,180.64,0,0,0-32.2-50.7L241.9,276.9,117.6,185.2a179.08,179.08,0,0,0-34.2,49.3l107.1,79L82.8,390.3a180.79,180.79,0,0,0,33.8,49.6L241.3,351l119,87.8a179.87,179.87,0,0,0,33.5-49.9Z" transform="translate(-13.5 -82.5)"/></svg>