<svg id="Capa_1" data-name="Capa 1" xmlns="http://www.w3.org/2000/svg" viewBox="0 0 612 505.64"><defs><style>.cls-1{fill:#fff;}</style></defs><title>phone</title><path class="cls-1" d="M371.47,202.69a161.68,161.68,0,0,0-64.06-12.9h-.61c-65.27,0-120.26,35.17-159.11,101.64a325.34,325.34,0,0,0-35.8,89c-7.52,31.64-11.43,60.51-11.43,86.63,0,57.49,18.35,91.76,48.73,91.76H465.62c30.07,0,48.57-34.27,48.72-91.12.15-55.95-16.09-125.06-50.83-180.5C440.2,250,412,220,371.47,202.69Zm108.88,265c-.19,38.18-9.92,59.55-14.73,57.75H149.19c-5.41,1.48-15.64-19-15.64-58.39,0-23.42,3.5-49.6,10.53-78.16A305.15,305.15,0,0,1,176.86,308,198.22,198.22,0,0,1,225,251.39c21.5-17.52,50.23-28.23,81.81-28.23h.61c31.57,0,60.39,10.91,81.8,28.55a205.36,205.36,0,0,1,48.73,57.18,293.52,293.52,0,0,1,32.49,81.17C477.31,418.68,480.47,444.54,480.35,467.7Z" transform="translate(-1 -53.18)"/><path class="cls-1" d="M307.41,297.72c-27.68,0-51.14,9.63-70.69,29.2s-29.18,43-29.18,70.39,9.63,51.14,29.18,70.65,43,29.19,70.69,29.19c27.36,0,50.82-9.62,70.38-29.19s29.48-43.32,29.48-70.65-9.93-50.57-29.48-70.07S334.77,297.72,307.41,297.72Zm46.92,146.82c-12.86,13-28.58,19.5-46.92,19.5s-34.37-6.54-47.23-19.5c-13-13.16-19.25-28.88-19.25-47.23s6.32-34,19.25-46.91a64.65,64.65,0,0,1,47.23-19.57c18.34,0,34,6.61,46.92,19.57s19.55,28.56,19.55,46.91S367.33,431.38,354.33,444.54Z" transform="translate(-1 -53.18)"/><path class="cls-1" d="M585,133.52c-18.35-18.93-42.49-34.08-72.79-45.43C451.7,65.43,377.79,53.18,299.89,53.18q-91.15,0-162.43,19.57c-47.24,12.9-82.34,31.38-105.57,54.73-20.69,20.86-30.63,44-30.08,69.82.05,2.37-.54,8.73-.6,11.1-.24,9.95-.31,17.77,0,23.74a88.91,88.91,0,0,0,4.21,21.69,51.83,51.83,0,0,0,12.33,21C28.68,286.23,45.12,292,67.08,292a128.08,128.08,0,0,0,14.74-.58c44.23-5.84,65.05-17.71,73.39-37,6.1-14.06,6.91-24.07,6.91-42.42v-6.86c0-2.44,1.21-4.82,3.62-7.25,8.72-8.73,26.2-15.47,52.33-21s55.65-8.41,88.13-8.41a474.34,474.34,0,0,1,77.6,6c23.16,3.91,40.55,8.85,52,14.44s17.44,10.84,17.44,16.3v5.07c0,19-.07,29.19,6,43.63a43.34,43.34,0,0,0,12.93,17.45c11.12,8.73,31.58,16.88,61.36,20.15,28,3.08,49.11-2.31,62.56-16,10.92-11,16.15-31.25,16.55-43.57.2-6.35.3-14.11.3-24.06v-9.94C613,173.81,603.37,152.45,585,133.52Zm-5.42,74.88c0,23.17-1.44,37.67-7.22,43.63C568,256.59,559.46,259,547.73,259a94,94,0,0,1-10.53-.64c-25-2.44-40.76-7.7-46.92-16.23-3.17-4.37-3.61-14.7-3.61-31.25v-5.71c0-18.36-12.7-33.56-30.38-43.32-17.21-9.49-44.53-16.74-66.47-20.14-10.85-1.74-22.57-3.21-34.89-4.24s-22.26-1.8-29.18-2.12S312.52,135,306.2,135c-11.13,0-22.55.45-34.29,1.22s-26.46,2.18-44.52,4.49c-35.78,4.62-69,16.43-85.72,33.69-9.46,9.82-12.93,20.15-12.93,30.74V212c0,12.39-.08,15.66-2.11,23.81-1,3.85-2.14,6.87-4.21,8.73-6.35,5.64-19,11.55-44.22,13.79-19,1.67-30.94,0-36.39-6.28-4.18-4.88-6.21-13-6.92-21.37-.2-2.44-.29-8.41-.29-10.53V209c0-2.43.67-9.37.59-11.74-.52-16.88,6-32.21,20.16-46.33,20.15-20.15,52.07-35.68,95.65-47.23s93.24-17.45,148.88-17.45q117.76,0,196.72,31.57c20.7,8.28,38.14,16.94,55,30.1,17.09,13.28,28,31,28,49.92V208.4Z" transform="translate(-1 -53.18)"/></svg>